<svg xmlns="http://www.w3.org/2000/svg" viewBox="0 0 27.352 32"><path d="M2.01 11.236h9.119V2.008h11.356v12.614h2.01V0H9.704l-9.7 9.818V32h10.49v-2.01h-8.48zm1.4-2.01l5.707-5.773v5.773z"/><path d="M27.197 28.485c-.5-3.156-2.584-10.446-11.2-10.973v-4.3l-9.882 7.629 9.673 8.034v-4.413c1.892.038 6.112.366 8.274 2.427a3.943 3.943 0 0 1 1.208 2.22c.058.479.069.793.071.862l2.01-.025a6.707 6.707 0 0 0-.154-1.461zm-12.461-6.027l-.957.045v2.089l-4.445-3.695 4.654-3.594v2.19h1.005c4.727 0 7.295 2.263 8.69 4.688-3.626-1.947-8.695-1.733-8.947-1.723z"/></svg>