<svg xmlns="http://www.w3.org/2000/svg" viewBox="0 0 29 32"><path d="M16.3 7.8a12.158 12.158 0 0 1 4.6.9 12.683 12.683 0 0 1 3.9 2.6 11.6 11.6 0 0 1 2.6 3.9 12.158 12.158 0 0 1 .9 4.6 11.236 11.236 0 0 1-.4 3.2 14.762 14.762 0 0 1-1.2 2.9 8.758 8.758 0 0 1-1.9 2.4 11.169 11.169 0 0 1-2.4 1.9 12.607 12.607 0 0 1-2.9 1.2 11.236 11.236 0 0 1-3.2.4H2.2v-2h14.1a8.423 8.423 0 0 0 2.7-.4 8.657 8.657 0 0 0 2.4-1 10.04 10.04 0 0 0 2-1.6 15.583 15.583 0 0 0 1.6-2 8.657 8.657 0 0 0 1-2.4 11.722 11.722 0 0 0 .4-2.7A8.031 8.031 0 0 0 26 17a8.657 8.657 0 0 0-1-2.4 10.04 10.04 0 0 0-1.6-2 15.583 15.583 0 0 0-2-1.6 8.657 8.657 0 0 0-2.4-1 11.722 11.722 0 0 0-2.7-.4h-13l6.7 6.7-1.2 1.2L0 8.9 8.9 0l1.2 1.2-6.8 6.6z"/></svg>