<svg xmlns="http://www.w3.org/2000/svg" viewBox="0 0 32 30"><path d="M32 2.133v27.734H0V2.133h4.267V0h6.4a8.924 8.924 0 0 1 2.825.45A8.258 8.258 0 0 1 16 1.8 8.258 8.258 0 0 1 18.508.45 8.924 8.924 0 0 1 21.333 0h6.4v2.133zm-10.667 0a6.709 6.709 0 0 0-2.267.392 6.513 6.513 0 0 0-2 1.142v20.9a8.5 8.5 0 0 1 2.067-.825 8.907 8.907 0 0 1 2.2-.275H25.6V2.133zM6.4 23.467h4.267a8.907 8.907 0 0 1 2.2.275 8.5 8.5 0 0 1 2.067.825v-20.9a6.513 6.513 0 0 0-2-1.142 6.709 6.709 0 0 0-2.267-.392H6.4zm-4.267 4.266h13.434a9.392 9.392 0 0 0-1.083-.908 7.192 7.192 0 0 0-1.142-.667 5.9 5.9 0 0 0-1.25-.417 6.771 6.771 0 0 0-1.425-.142h-6.4V4.267H2.133zM29.867 4.267h-2.134V25.6h-6.4a6.771 6.771 0 0 0-1.425.142 5.9 5.9 0 0 0-1.25.417 7.192 7.192 0 0 0-1.142.667 9.392 9.392 0 0 0-1.083.908h13.434z"/></svg>