<svg xmlns="http://www.w3.org/2000/svg" viewBox="0 0 26.4 32"><path d="M2 9.1h22v7.4h2V1h-5.5V0h-2v1h-11V0h-2v1H0v27h8.2v-2H2zM5.5 3v2h2V3h11v2h2V3H24v4.1H2V3z"/><path d="M23.8 18.2a2.958 2.958 0 0 0-1 .2 2.271 2.271 0 0 0-2.1-1 4.3 4.3 0 0 0-1.2.2 2.207 2.207 0 0 0-2-1 1.7 1.7 0 0 0-.7.1 3.5 3.5 0 0 0 .8-2.2 3.3 3.3 0 1 0-6.6 0 3.5 3.5 0 0 0 .8 2.2v4.1c-.3.5-1.1 1.9-1.6 2.7-1 1.6-1 3.1.1 4.3.5.6 3.1 3.5 4.8 3.9a31.376 31.376 0 0 0 4.8.3h1.3c4.3-.5 5.2-3.4 5.2-5.8v-5.5a2.481 2.481 0 0 0-2.6-2.5zm.6 8c0 3-1.7 3.7-3.4 3.8h-.2a24.585 24.585 0 0 1-5.3-.3c-.6-.1-2.3-1.6-3.7-3.2-.5-.5-.4-1.1 0-1.9h1.9V14.2a.45.45 0 0 1 .5-.5c.2 0 .5 0 .5.5v7.2H17V19a.5.5 0 0 1 1 0v2.4h2.1v-1.7a.45.45 0 0 1 .5-.5c.2 0 .5 0 .5.5v1.7h2v-.9a.45.45 0 0 1 .5-.5c.2 0 .5 0 .5.5v5.6h.3zM4.2 11.9h4v4h-4zM4.2 19.3h4v4h-4z"/></svg>