<svg xmlns="http://www.w3.org/2000/svg" viewBox="0 0 32 32"><path d="M23.3 9.3l1.4 1.4L13 22.406 7.3 16.7l1.4-1.4 4.3 4.3zM16 0a15.76 15.76 0 0 1 4.25.57 16.18 16.18 0 0 1 3.828 1.609 15.889 15.889 0 0 1 3.242 2.5 15.889 15.889 0 0 1 2.5 3.242 16.181 16.181 0 0 1 1.61 3.829A15.761 15.761 0 0 1 32 16a15.76 15.76 0 0 1-.57 4.25 16.181 16.181 0 0 1-1.61 3.828 15.889 15.889 0 0 1-2.5 3.242 15.889 15.889 0 0 1-3.242 2.5 16.181 16.181 0 0 1-3.828 1.61A15.76 15.76 0 0 1 16 32a15.76 15.76 0 0 1-4.25-.57 16.181 16.181 0 0 1-3.828-1.61 15.889 15.889 0 0 1-3.242-2.5 15.889 15.889 0 0 1-2.5-3.242 16.215 16.215 0 0 1-1.61-3.82A15.734 15.734 0 0 1 0 16a15.76 15.76 0 0 1 .57-4.25 16.181 16.181 0 0 1 1.61-3.828 15.889 15.889 0 0 1 2.5-3.242 15.889 15.889 0 0 1 3.242-2.5 16.215 16.215 0 0 1 3.82-1.609A15.734 15.734 0 0 1 16 0zm0 30a13.722 13.722 0 0 0 3.711-.5 14 14 0 0 0 3.344-1.414 14.107 14.107 0 0 0 2.836-2.2 14.107 14.107 0 0 0 2.2-2.836 14.035 14.035 0 0 0 1.409-3.331A13.7 13.7 0 0 0 30 16a13.722 13.722 0 0 0-.5-3.711 14 14 0 0 0-1.414-3.344 14.107 14.107 0 0 0-2.2-2.836 14.107 14.107 0 0 0-2.836-2.2A14 14 0 0 0 19.711 2.5 13.722 13.722 0 0 0 16 2a13.722 13.722 0 0 0-3.711.5 14 14 0 0 0-3.344 1.414 14.107 14.107 0 0 0-2.836 2.2 14.107 14.107 0 0 0-2.2 2.836A14 14 0 0 0 2.5 12.289 13.722 13.722 0 0 0 2 16a13.722 13.722 0 0 0 .5 3.711 14 14 0 0 0 1.414 3.344 14.107 14.107 0 0 0 2.2 2.836 14.107 14.107 0 0 0 2.836 2.2 14.035 14.035 0 0 0 3.331 1.409A13.7 13.7 0 0 0 16 30z"/></svg>