<svg xmlns="http://www.w3.org/2000/svg" viewBox="0 0 32 20"><path d="M26.5 19.9H6a6 6 0 0 1 0-12A6.089 6.089 0 0 1 10.2 6a7 7 0 0 1 6.9-6 6.888 6.888 0 0 1 6.3 3.9h.5A6.124 6.124 0 0 1 30 10v.2a5.307 5.307 0 0 1 2 4.2 5.549 5.549 0 0 1-5.5 5.5zM6 9.8a4 4 0 0 0 0 8h20.5a3.543 3.543 0 0 0 3.5-3.5 3.356 3.356 0 0 0-1.6-2.9l-.5-.3.1-.6v-.6a4.118 4.118 0 0 0-4.1-4.1 2.769 2.769 0 0 0-.9.1l-.9.2-.3-.8A5.182 5.182 0 0 0 17 1.9a5.015 5.015 0 0 0-5 5V8l-1.1-.1h-.5a4.413 4.413 0 0 0-3.2 1.5l-.3.5h-.5a.756.756 0 0 0-.4-.1z"/></svg>