<svg xmlns="http://www.w3.org/2000/svg" width="32.045" height="27.735" viewBox="0 0 32.045 27.735">
  <g id="ChatBloqueado" transform="translate(-799 -3647)">
    <g id="Agrupar_12902" data-name="Agrupar 12902" transform="translate(799 3647)">
      <rect id="Retângulo_24315" data-name="Retângulo 24315" width="8.812" height="1.714" transform="translate(5.484 11.748)"/>
      <rect id="Retângulo_24316" data-name="Retângulo 24316" width="12.239" height="1.714" transform="translate(5.524 8.211)"/>
      <rect id="Retângulo_24317" data-name="Retângulo 24317" width="12.239" height="1.714" transform="translate(5.524 4.548)"/>
      <path id="Caminho_8171" data-name="Caminho 8171" d="M32.022,18.784a8.419,8.419,0,0,0-8.573-7.69V0H0V18.028H8.7l3.026,3.026,3.026-3.026h.63a10.19,10.19,0,0,0-.126,2.017,8.366,8.366,0,0,0,8.321,7.69h.63a8.342,8.342,0,0,0,7.815-8.951Zm-17.9-2.521-2.4,2.4-2.4-2.4H1.765V1.765H21.684v9.581a4.516,4.516,0,0,0-1.387.5A8.074,8.074,0,0,0,16.641,15a5.889,5.889,0,0,0-.63,1.261Zm3.152,3.656a9.542,9.542,0,0,1,.126-1.891c0-.126.126-.378.126-.5a13.08,13.08,0,0,1,.5-1.261c.126-.126.126-.252.252-.378a7.329,7.329,0,0,1,2.269-2.143c.378-.126.63-.378,1.009-.5.252-.126.5-.126.756-.252.252,0,.5-.126.756-.126h.5a6.34,6.34,0,0,1,3.4,1.009L23.2,18.28l-1.39,1.513-3.152,3.656a7.434,7.434,0,0,1-1.386-3.53Zm6.934,5.925A6.091,6.091,0,0,1,20.3,24.836L23.7,20.8h0l4.791-5.547a6.447,6.447,0,0,1-4.286,10.59Z"/>
    </g>
  </g>
</svg>
