<svg xmlns="http://www.w3.org/2000/svg" viewBox="0 0 32 19.5"><path d="M17 19.5h-2a8.468 8.468 0 0 1 1.335-4.575 8.521 8.521 0 0 1 3.466-3.08 6.507 6.507 0 0 1-2.8-5.345 6.508 6.508 0 0 1 6.5-6.5 6.507 6.507 0 0 1 6.5 6.5 6.506 6.506 0 0 1-2.8 5.345 8.519 8.519 0 0 1 3.466 3.08A8.468 8.468 0 0 1 32 19.5h-2a6.461 6.461 0 0 0-1.906-4.595A6.455 6.455 0 0 0 23.5 13a6.508 6.508 0 0 0-6.5 6.5zM23.5 2A4.506 4.506 0 0 0 19 6.5a4.505 4.505 0 0 0 4.5 4.5A4.5 4.5 0 0 0 28 6.5 4.5 4.5 0 0 0 23.5 2zM12.914 8.476l1.414 1.414-3.889 3.89-1.414-1.415L11.5 9.89 9.025 7.415l1.414-1.414zM0 9h8v2H0z"/></svg>