<svg xmlns="http://www.w3.org/2000/svg" viewBox="0 0 32 28"><path d="M17 19.5h-2a6.458 6.458 0 0 0-1.906-4.594A6.452 6.452 0 0 0 8.5 13 6.509 6.509 0 0 0 2 19.5H0a8.467 8.467 0 0 1 1.335-4.575 8.533 8.533 0 0 1 3.466-3.08 6.507 6.507 0 0 1-2.8-5.345 6.508 6.508 0 0 1 6.5-6.5 6.507 6.507 0 0 1 6.5 6.5 6.5 6.5 0 0 1-2.8 5.345 8.525 8.525 0 0 1 3.466 3.08q.179.28.335.571.156-.291.335-.571a8.533 8.533 0 0 1 3.466-3.08 6.5 6.5 0 0 1-2.8-5.345 6.508 6.508 0 0 1 6.5-6.5 6.507 6.507 0 0 1 6.5 6.5 6.5 6.5 0 0 1-2.8 5.345 8.533 8.533 0 0 1 3.466 3.08A8.474 8.474 0 0 1 32 19.5h-2a6.458 6.458 0 0 0-1.906-4.594A6.452 6.452 0 0 0 23.5 13a6.509 6.509 0 0 0-6.5 6.5zm2-13a4.505 4.505 0 0 0 4.5 4.5A4.5 4.5 0 0 0 28 6.5 4.505 4.505 0 0 0 23.5 2 4.507 4.507 0 0 0 19 6.5zm-15 0A4.505 4.505 0 0 0 8.5 11 4.5 4.5 0 0 0 13 6.5 4.505 4.505 0 0 0 8.5 2 4.507 4.507 0 0 0 4 6.5zM28.963 22.476l1.414 1.414-3.889 3.89-1.414-1.415 2.475-2.475-2.475-2.475 1.414-1.414zM8.049 23h16v2h-16z"/></svg>