<svg xmlns="http://www.w3.org/2000/svg" viewBox="0 0 32 23"><path d="M31.3 10.3a27.438 27.438 0 0 0-9.5-6.5l1.9-2.6L22.1 0l-2.3 3.2a16 16 0 0 0-3.9-.5C7.5 2.7.9 10 .6 10.3L0 11l.6.7a29 29 0 0 0 8.7 6.2l-2.6 3.7 1.6 1.2 3-4.1a17.777 17.777 0 0 0 4.7.7c8.4 0 15-7.3 15.3-7.6l.6-.7zM2.7 11c1.8-1.7 7.1-6.3 13.2-6.3a10.9 10.9 0 0 1 2.6.3l-1 1.3a4.146 4.146 0 0 0-1.6-.3 4.951 4.951 0 0 0-5 5 4.69 4.69 0 0 0 1.1 3.1l-1.5 2.1A30.345 30.345 0 0 1 2.7 11zm13.2 6.3a12.7 12.7 0 0 1-3.4-.5l1-1.5a4.645 4.645 0 0 0 2.3.6 4.951 4.951 0 0 0 5-5 4.841 4.841 0 0 0-1.6-3.6l1.3-1.8A24.252 24.252 0 0 1 29 11c-1.6 1.7-6.9 6.3-13.1 6.3z"/></svg>