<svg xmlns="http://www.w3.org/2000/svg" viewBox="0 0 32 32"><g><circle cx="16" cy="16" r="16" fill="#fff"/><path d="M16 0a15.843 15.843 0 0 1 8.07 2.188 16.3 16.3 0 0 1 5.743 5.742 15.938 15.938 0 0 1 0 16.141 16.3 16.3 0 0 1-5.742 5.742 15.938 15.938 0 0 1-16.141 0 16.3 16.3 0 0 1-5.742-5.743 15.938 15.938 0 0 1 0-16.141A16.3 16.3 0 0 1 7.93 2.188 15.843 15.843 0 0 1 16 0zm1.766 16l5.344-5.344-1.766-1.765L16 14.234l-5.344-5.343-1.765 1.765L14.234 16l-5.343 5.344 1.766 1.766L16 17.766l5.344 5.344 1.766-1.766z"/></g></svg>