<svg xmlns="http://www.w3.org/2000/svg" viewBox="0 0 29 32"><path d="M28.636 26.01a6.631 6.631 0 0 1-.841 2.417 6.882 6.882 0 0 1-1.576 1.892 7.559 7.559 0 0 1-2.207 1.261 7.064 7.064 0 0 1-2.522.42 6.583 6.583 0 0 1-2.837-.631 7.7 7.7 0 0 1-2.417-1.681v2.207h-2.1v-6.306h6.305v2.1h-3.152a6.882 6.882 0 0 0 1.892 1.576 4.406 4.406 0 0 0 2.312.525 4.909 4.909 0 0 0 1.786-.315 4.851 4.851 0 0 0 1.576-.946 7.235 7.235 0 0 0 1.156-1.366 5.174 5.174 0 0 0 .631-1.786zm-7.251-6.515a4.909 4.909 0 0 0-1.786.315 6.272 6.272 0 0 0-1.576.946 7.235 7.235 0 0 0-1.156 1.366 5.174 5.174 0 0 0-.631 1.786l-2.1-.315a6.631 6.631 0 0 1 .841-2.417 6.882 6.882 0 0 1 1.576-1.892 7.559 7.559 0 0 1 2.207-1.261 7.064 7.064 0 0 1 2.522-.42 6.583 6.583 0 0 1 2.837.631 7.7 7.7 0 0 1 2.417 1.681v-2.207h2.1v6.305h-6.3v-2.1h3.153a6.882 6.882 0 0 0-1.892-1.576 2.924 2.924 0 0 0-2.21-.842z"/><g fill="none" stroke="#000" stroke-miterlimit="10" stroke-width="2"><path d="M7.936 29.583H1V9.827L9.722 1h12.715v9.247"/><path d="M9.722 1.841v7.986H1"/></g></svg>