<svg xmlns="http://www.w3.org/2000/svg" width="24.2" height="32.044" viewBox="0 0 24.2 32.044">
  <g id="DocumentoBloqueado" transform="translate(-3.9)">
    <g id="Agrupar_12905" data-name="Agrupar 12905">
      <rect id="Retângulo_24318" data-name="Retângulo 24318" width="8.9" height="2" transform="translate(8.5 8.9)"/>
      <rect id="Retângulo_24319" data-name="Retângulo 24319" width="8.9" height="2" transform="translate(8.5 12.5)"/>
      <rect id="Retângulo_24320" data-name="Retângulo 24320" width="8.9" height="2" transform="translate(8.5 16.2)"/>
      <path id="Caminho_8178" data-name="Caminho 8178" d="M21.8,17.7V6l-6-6H3.9V23.5h9.9a5.7,5.7,0,0,0-.1,1.3,7.2,7.2,0,1,0,8.1-7.1Zm-5.2,10a4.764,4.764,0,0,1-.9-2.9,5.164,5.164,0,0,1,5.2-5.2,4.764,4.764,0,0,1,2.9.9ZM16.5,3.4l2,2h-2ZM5.9,21.5V2h8.6V7.4h5.4V17.6a7.028,7.028,0,0,0-5.3,3.8H5.9Zm15,8.5a4.764,4.764,0,0,1-2.9-.9l7.2-7.2a4.764,4.764,0,0,1,.9,2.9A5.164,5.164,0,0,1,20.9,30Z"/>
    </g>
  </g>
</svg>
