<svg xmlns="http://www.w3.org/2000/svg" viewBox="0 0 27.631 32"><path d="M12.036 30.09H2.006V5.416l3.41-3.41h16.65v9.027h2.006V0H4.614L0 4.614V32.1h12.036z"/><path d="M8.626 18.656a6.62 6.62 0 1 1 6.62 6.62 6.55 6.55 0 0 1-6.62-6.62zm1.4 0a5.179 5.179 0 0 0 5.216 5.216 5.06 5.06 0 0 0 5.216-5.216 5.06 5.06 0 0 0-5.212-5.22 5.179 5.179 0 0 0-5.22 5.22z"/><path d="M26.882 31.292a.737.737 0 0 0 .6-.2.911.911 0 0 0 0-1L20.06 22.67a.911.911 0 0 0-1 0 .911.911 0 0 0 0 1l7.422 7.422a.7.7 0 0 0 .4.2z"/><g><path d="M8.626 18.656a6.62 6.62 0 1 1 6.62 6.62 6.55 6.55 0 0 1-6.62-6.62zm1.4 0a5.179 5.179 0 0 0 5.216 5.216 5.06 5.06 0 0 0 5.216-5.216 5.06 5.06 0 0 0-5.212-5.22 5.179 5.179 0 0 0-5.22 5.22z"/><path d="M26.882 31.292a.737.737 0 0 0 .6-.2.911.911 0 0 0 0-1L20.06 22.67a.911.911 0 0 0-1 0 .911.911 0 0 0 0 1l7.422 7.422a.7.7 0 0 0 .4.2z"/></g></svg>