<svg xmlns="http://www.w3.org/2000/svg" width="29.25" height="31.9" viewBox="0 0 29.25 31.9">
  <g id="Editar" transform="translate(-1.4 -0.1)">
    <path id="Caminho_8183" data-name="Caminho 8183" d="M29.7,9.7a3.393,3.393,0,0,0-4.2-.5v-4L20.4.1H1.4V32H25.5V18.8l4.1-4.1a3.627,3.627,0,0,0,.1-5ZM19,2.1h.6L23,5.5H19.1V2.1ZM23.5,30H3.4V2.1H17V7.5h6.5V11L12.7,21.8,11,28.4l6.6-1.7,5.9-5.9Zm-8.3-5.8a2.837,2.837,0,0,1,.6.9l-2,.5.5-2Zm2.3-.2a3.449,3.449,0,0,0-.9-1.2,4.7,4.7,0,0,0-1.2-.9l9.3-9.3,2.1,2.1ZM28.2,13.3l-2.1-2.1a1.433,1.433,0,0,1,2.1,0C29.1,11.9,28.4,12.9,28.2,13.3Z"/>
    <rect id="Ret창ngulo_24321" data-name="Ret창ngulo 24321" width="8.2" height="2" transform="translate(5.3 6.6)"/>
    <rect id="Ret창ngulo_24322" data-name="Ret창ngulo 24322" width="11.3" height="2" transform="translate(5.3 10.9)"/>
  </g>
</svg>
