<svg xmlns="http://www.w3.org/2000/svg" viewBox="0 0 26 32"><path d="M10.6 0H24v12.5a6.982 6.982 0 0 0-2-.8V2H12v10H2v18h12v2H0V10.6zM10 3.4L3.4 10H10zm4.5 14.3a4.968 4.968 0 0 1 1.3-1.9 8.016 8.016 0 0 1 1.9-1.3 5.54 5.54 0 0 1 4.6 0 4.968 4.968 0 0 1 1.9 1.3 8.016 8.016 0 0 1 1.3 1.9A5.932 5.932 0 0 1 26 20a6.042 6.042 0 0 1-.5 2.4 4.26 4.26 0 0 1-1.5 2v7.2l-4-2-4 2v-7.2a7.492 7.492 0 0 1-1.5-2A6.042 6.042 0 0 1 14 20a5.932 5.932 0 0 1 .5-2.3zm7.1 6a4.419 4.419 0 0 0 2.2-2.2 4.417 4.417 0 0 0 0-3.2 4.123 4.123 0 0 0-5.4-2.2 4.419 4.419 0 0 0-2.2 2.2 4.417 4.417 0 0 0 0 3.2 4.123 4.123 0 0 0 5.4 2.2zM18 28.4l2-1 2 1v-2.7a6.817 6.817 0 0 1-4 0z"/></svg>