<svg xmlns="http://www.w3.org/2000/svg" viewBox="0 0 32 27.379"><path d="M21.485 23.184h1.509a9.783 9.783 0 0 0-.144-1.51c-.575-3.45-2.874-11.786-12.719-12.145V5.074L0 12.907 9.844 21.1v-4.526c1.94 0 7.4.287 10.06 2.875a5.378 5.378 0 0 1 1.509 2.8 6.674 6.674 0 0 1 .072.935zM9.844 15.135H8.407v2.8L2.3 12.907 8.7 8.02v2.875h.719c6.467 0 9.485 3.593 10.922 6.9-3.311-2.444-8.556-2.66-10.497-2.66z"/><path d="M32 27.379H10.667v-6.845h1.748v5.134h17.837V8.214h-6.645v-6.5H12.415v5.131h-1.748V0h14.165l7.169 6.931v20.448zm-6.644-24.47v3.508h3.584z"/></svg>