<svg xmlns="http://www.w3.org/2000/svg" viewBox="0 0 26.88 32"><path d="M18.243 32.009c-5.8 0-7.6-1.7-9.6-3.6a19.2 19.2 0 0 1-1.5-1.4c-1.8-1.4-6-6.4-6.2-6.6a3.277 3.277 0 0 1 0-4.6 3.227 3.227 0 0 1 2.1-.8 3.629 3.629 0 0 1 2.7 1.4l1 1v-13.4a4.834 4.834 0 0 1 1.1-3.1 2.792 2.792 0 0 1 2.2-.9 2.857 2.857 0 0 1 2.4 1 4.361 4.361 0 0 1 .9 3v4.2a5.067 5.067 0 0 1 1.3-.2 3.794 3.794 0 0 1 2.4.8 3.011 3.011 0 0 1 2-.7 2.971 2.971 0 0 1 3.2 2.4v.5a3.194 3.194 0 0 1 1.4-.3 3.253 3.253 0 0 1 3.2 3.5v6.6c.4 4.6-2.4 11.2-8.6 11.2zm-15.3-14.9a1.421 1.421 0 0 0-.6.2c-.8.7 0 1.7.2 1.9a66.3 66.3 0 0 0 5.9 6.4c.6.5 1.1 1 1.6 1.5 1.9 1.8 3.2 3 8.2 3 4.7 0 7-5.5 7-9.2v-6.6c0-.3-.1-1.5-1.2-1.5a1.349 1.349 0 0 0-1.5 1.5v1.8h-2v-5.1c-.1-.2-.3-.7-1.3-.7a1 1 0 0 0-1 .6v5.2h-2v-5.1c0-.3-.3-.9-1.4-.9-1.3 0-1.4.6-1.4.7v5.2h-2v-12.2a2.275 2.275 0 0 0-.4-1.5 1.414 1.414 0 0 0-1-.3 1 1 0 0 0-.8.3 2.989 2.989 0 0 0-.5 1.7v18.2l-4.4-4.3a1.96 1.96 0 0 0-1.4-.8z"/></svg>