<svg xmlns="http://www.w3.org/2000/svg" viewBox="0 0 32 32"><path d="M19.975 8.459a5.427 5.427 0 0 0-3.874-1.325 5.071 5.071 0 0 0-3.975 1.529l-.306.306.306-.306a5.645 5.645 0 0 0-1.425 4.178h2.14a4.705 4.705 0 0 1 .51-2.344 2.8 2.8 0 0 1 2.75-1.529 3.1 3.1 0 0 1 2.344.815 2.938 2.938 0 0 1 .713 2.038 3.383 3.383 0 0 1-.51 1.631 2.747 2.747 0 0 1-.713.815l-1.019 1.019a8.42 8.42 0 0 0-1.833 2.448 7.124 7.124 0 0 0-.408 2.752h2.14a6.2 6.2 0 0 1 .306-2.242 6.8 6.8 0 0 1 1.529-1.936 30.039 30.039 0 0 0 2.14-2.344 4.014 4.014 0 0 0 .51-2.038 4.607 4.607 0 0 0-1.325-3.467zM14.676 22.421h2.344v2.446h-2.344z"/><path d="M16 0a15.894 15.894 0 0 1 11.313 4.686A15.894 15.894 0 0 1 32 16a15.9 15.9 0 0 1-4.687 11.314A15.9 15.9 0 0 1 16 32a15.9 15.9 0 0 1-11.313-4.687A15.9 15.9 0 0 1 0 16 15.894 15.894 0 0 1 4.686 4.687 15.894 15.894 0 0 1 16 0zm0 30a14.016 14.016 0 0 0 14-14A14.016 14.016 0 0 0 16 2 14.016 14.016 0 0 0 2 16a14.016 14.016 0 0 0 14 14z"/></svg>