<svg xmlns="http://www.w3.org/2000/svg" viewBox="0 0 24 32"><path d="M24 14.001v18H0v-18h4v-5.8a8.291 8.291 0 0 1 .6-3.2 7.821 7.821 0 0 1 1.7-2.6 11.382 11.382 0 0 1 2.5-1.8 8.291 8.291 0 0 1 3.2-.6 8.662 8.662 0 0 1 3.2.6 6.422 6.422 0 0 1 2.5 1.8 7.821 7.821 0 0 1 1.7 2.6 8.291 8.291 0 0 1 .6 3.2v5.8zm-2 2H2v14h20zm-16-2h12v-5.8a6.874 6.874 0 0 0-.5-2.4 6.251 6.251 0 0 0-1.3-2 4.968 4.968 0 0 0-1.9-1.3 5.555 5.555 0 0 0-2.3-.5 6.436 6.436 0 0 0-2.4.5 6.4 6.4 0 0 0-1.9 1.3 6.9 6.9 0 0 0-1.3 2 8.6 8.6 0 0 0-.4 2.4z"/></svg>