<svg xmlns="http://www.w3.org/2000/svg" viewBox="0 0 32 32"><path d="M15.997 10.395a1.789 1.789 0 0 1 1.918 1.87h3.836a5.453 5.453 0 0 0-3.836-5.229V4.795h-3.836v2.241a5.453 5.453 0 0 0-3.836 5.229 5.506 5.506 0 0 0 1.918 3.73 8.371 8.371 0 0 0 3.069 1.681 12.254 12.254 0 0 1 2.3 1.307c.575.373.575.56.575.747a2.036 2.036 0 0 1-1.918 1.867 1.789 1.789 0 0 1-1.916-1.862h-3.836a5.453 5.453 0 0 0 3.836 5.229v2.241h3.836v-2.242a5.453 5.453 0 0 0 3.836-5.228 4.742 4.742 0 0 0-1.918-3.548 29.065 29.065 0 0 0-3.261-1.867 13.81 13.81 0 0 1-2.11-1.307c-.384-.373-.575-.373-.575-.747a1.9 1.9 0 0 1 1.918-1.871z"/><path d="M16 0a15.894 15.894 0 0 1 11.313 4.686A15.894 15.894 0 0 1 32 16a15.9 15.9 0 0 1-4.687 11.314A15.9 15.9 0 0 1 16 32a15.9 15.9 0 0 1-11.313-4.687A15.9 15.9 0 0 1 0 16 15.894 15.894 0 0 1 4.686 4.687 15.894 15.894 0 0 1 16 0zm0 30a14.016 14.016 0 0 0 14-14A14.016 14.016 0 0 0 16 2 14.016 14.016 0 0 0 2 16a14.016 14.016 0 0 0 14 14z"/></svg>