<svg id="Mudo" xmlns="http://www.w3.org/2000/svg" width="31.9" height="32" viewBox="0 0 31.9 32">
  <path id="Caminho_8198" data-name="Caminho 8198" d="M26.5,25.2a13.944,13.944,0,0,0-.6-18.9L24.5,7.7A11.881,11.881,0,0,1,28,16.1a11.754,11.754,0,0,1-2.8,7.7l-2.3-2.3a8.664,8.664,0,0,0-.5-11.4L21,11.4a6.834,6.834,0,0,1,1.9,4.7A6.758,6.758,0,0,1,21.6,20L17,15.5V1.7L9.9,8.4,1.5,0,0,1.4,30.5,32l1.4-1.4ZM15,6.4v7.1L11.4,9.9Z"/>
  <path id="Caminho_8199" data-name="Caminho 8199" d="M15,25.6,9.2,20.1H4.6V11.9H6.1v-2H2.6V22.1H8.4L17,30.3V20.8H15Z"/>
</svg>
