<svg xmlns="http://www.w3.org/2000/svg" viewBox="0 0 28.617 32"><path d="M20.876 18.822h-2.009v3.429h-3.432v2.012h3.429v3.428h2.008v-3.428H24.3V22.25h-3.424z"/><path d="M19.872 14.51a8.745 8.745 0 1 0 8.745 8.745 8.754 8.754 0 0 0-8.745-8.745zm0 15.481a6.736 6.736 0 1 1 6.736-6.736 6.743 6.743 0 0 1-6.736 6.736zM5.536 11.107h11.086v2.008H5.536zM9.643 20.047H5.535v2.008h3.691a10.644 10.644 0 0 1 .417-2.008zM5.535 15.577v2.008h5.258a10.789 10.789 0 0 1 1.615-2.008z"/><path d="M2.008 26.684V2.008h11.206v6.706h6.7v3.826a10.809 10.809 0 0 1 1.722.156h.286V7.294L14.634 0H0v28.691h10.648a10.589 10.589 0 0 1-.923-2.008zM15.222 3.429l3.273 3.276h-3.273z"/></svg>