<svg xmlns="http://www.w3.org/2000/svg" viewBox="0 0 14.968 32"><path d="M12.912 5.807v18.709a5.435 5.435 0 0 1-5.425 5.428 5.359 5.359 0 0 1-2.438-.6 5.415 5.415 0 0 1-2.991-4.823V5.223A3.159 3.159 0 0 1 4.887 2.09a3.053 3.053 0 0 1 .333-.034 3.145 3.145 0 0 1 1.8.565 3.228 3.228 0 0 1 .561.509 3.143 3.143 0 0 1 .806 2.093v19.428a1.073 1.073 0 1 1-2.146 0V7.666H4.187v16.985a3.129 3.129 0 1 0 6.258 0V5.223a5.2 5.2 0 0 0-.188-1.316 5.213 5.213 0 0 0-1.83-2.777 5.14 5.14 0 0 0-1.2-.725 5.215 5.215 0 0 0-7.23 4.818v19.293a7.484 7.484 0 0 0 14.968 0V5.807z"/></svg>