<svg xmlns="http://www.w3.org/2000/svg" viewBox="0 0 32 20"><path d="M16 8a5.847 5.847 0 0 1 2.328.469 6.025 6.025 0 0 1 3.2 3.2A5.847 5.847 0 0 1 22 14a5.831 5.831 0 0 1-.469 2.336 6.046 6.046 0 0 1-3.2 3.2 6.035 6.035 0 0 1-4.664 0 6.067 6.067 0 0 1-3.2-3.2A5.831 5.831 0 0 1 10 14a5.847 5.847 0 0 1 .469-2.325 6.046 6.046 0 0 1 3.2-3.2A5.83 5.83 0 0 1 16 8zm0 10a3.893 3.893 0 0 0 1.555-.312 4.031 4.031 0 0 0 2.133-2.133A3.893 3.893 0 0 0 20 14a3.893 3.893 0 0 0-.312-1.555 4.031 4.031 0 0 0-2.133-2.133 4.024 4.024 0 0 0-3.109 0 4.031 4.031 0 0 0-2.133 2.133A3.893 3.893 0 0 0 12 14a3.893 3.893 0 0 0 .313 1.555 4.031 4.031 0 0 0 2.133 2.133A3.893 3.893 0 0 0 16 18zm0-18a18.11 18.11 0 0 1 4.438.555 17.3 17.3 0 0 1 4.156 1.633 15.737 15.737 0 0 1 3.539 2.664A13.362 13.362 0 0 1 30.719 8.5a13.149 13.149 0 0 1 .953 2.675A12.174 12.174 0 0 1 32 14h-2a10.393 10.393 0 0 0-.562-3.453 10.864 10.864 0 0 0-1.555-2.937 12.444 12.444 0 0 0-2.336-2.375 14.817 14.817 0 0 0-2.9-1.766 15.872 15.872 0 0 0-3.256-1.094 15.516 15.516 0 0 0-6.781 0 15.872 15.872 0 0 0-3.258 1.094 14.817 14.817 0 0 0-2.9 1.766 12.444 12.444 0 0 0-2.335 2.374 10.864 10.864 0 0 0-1.554 2.938A10.393 10.393 0 0 0 2 14H0a12.174 12.174 0 0 1 .328-2.825 13.149 13.149 0 0 1 .953-2.68 13.362 13.362 0 0 1 2.586-3.643 15.737 15.737 0 0 1 3.539-2.665A17.3 17.3 0 0 1 11.562.554 18.11 18.11 0 0 1 16 0z"/></svg>