<svg xmlns="http://www.w3.org/2000/svg" viewBox="0 0 32 32"><path d="M31 20.2L15.8 5a1.215 1.215 0 0 0-1.6 0l-.6.6L8.2.3a1.215 1.215 0 0 0-1.6 0L.3 6.7 0 7v.9l5.7 5.7-.7.7a1.215 1.215 0 0 0 0 1.6L20.2 31a3.049 3.049 0 0 0 2.1.9 2.878 2.878 0 0 0 2.1-.9l6.5-6.5a2.936 2.936 0 0 0 .1-4.3zM7.5 2.4l4.7 4.7-5.1 5.1-4.7-4.7zm22 20.6L23 29.5a.967.967 0 0 1-1.4 0L7.1 15 15 7.1l14.5 14.5a.967.967 0 0 1 0 1.4z"/><path d="M7.8 8.5L6.3 7a.99.99 0 0 0-1.4 1.4l1.5 1.5a1.08 1.08 0 0 0 .7.3 1.08 1.08 0 0 0 .7-.3.967.967 0 0 0 0-1.4zM8.5 7.8a1.08 1.08 0 0 0 .7.3 1.08 1.08 0 0 0 .7-.3.967.967 0 0 0 0-1.4L8.4 4.9A.99.99 0 0 0 7 6.3z"/></svg>