<svg xmlns="http://www.w3.org/2000/svg" viewBox="0 0 32 32"><path d="M7 29.2a17.635 17.635 0 0 1-3.7-3.5 19.477 19.477 0 0 1-2.4-4.5 15.578 15.578 0 0 1-.3-9.5 16.067 16.067 0 0 1 1.6-3.8 13.131 13.131 0 0 1 2.5-3.2 18.5 18.5 0 0 1 3.2-2.5A18.031 18.031 0 0 1 11.7.6a15.708 15.708 0 0 1 8.6 0 16.067 16.067 0 0 1 3.8 1.6 13.131 13.131 0 0 1 3.2 2.5 18.5 18.5 0 0 1 2.5 3.2 18.031 18.031 0 0 1 1.6 3.8 15.708 15.708 0 0 1 0 8.6 16.822 16.822 0 0 1-1.6 3.9 16.436 16.436 0 0 1-2.6 3.3 18.723 18.723 0 0 1-3.5 2.6H28v2h-8v-8h2v4.6a14.61 14.61 0 0 0 3.3-2.2 14.246 14.246 0 0 0 2.5-3 14.622 14.622 0 0 0 1.6-3.6A13.2 13.2 0 0 0 30 16a15.012 15.012 0 0 0-.5-3.7A12.154 12.154 0 0 0 28.1 9a11.825 11.825 0 0 0-2.2-2.8A14.247 14.247 0 0 0 23.1 4a12.154 12.154 0 0 0-3.3-1.4A12.558 12.558 0 0 0 16 2a15.012 15.012 0 0 0-3.7.5 14.344 14.344 0 0 0-3.4 1.4 11.825 11.825 0 0 0-2.8 2.2 19.335 19.335 0 0 0-2.2 2.8 12.154 12.154 0 0 0-1.4 3.3A16.518 16.518 0 0 0 2 16a13.3 13.3 0 0 0 .8 4.5 15.3 15.3 0 0 0 2.1 4 15.677 15.677 0 0 0 3.2 3.1 12.758 12.758 0 0 0 4.1 1.9l-.5 1.9A15.584 15.584 0 0 1 7 29.2z"/><path d="M16 20a4 4 0 1 1 4-4 4.012 4.012 0 0 1-4 4zm0-6a2 2 0 1 0 2 2 2.006 2.006 0 0 0-2-2z"/></svg>