<svg xmlns="http://www.w3.org/2000/svg" viewBox="0 0 32 28.9"><path d="M18.3 2.8A3.75 3.75 0 0 0 14.7 0 3.869 3.869 0 0 0 11 2.8H0v2h11a3.78 3.78 0 0 0 3.7 2.8 3.869 3.869 0 0 0 3.7-2.8H32v-2zm-3.6 2.8a1.793 1.793 0 1 1 1.275-.525A1.8 1.8 0 0 1 14.7 5.6zM24 10.6a3.869 3.869 0 0 0-3.7 2.8H0v2h20.3a3.78 3.78 0 0 0 3.7 2.8 3.869 3.869 0 0 0 3.7-2.8H32v-2h-4.3a3.869 3.869 0 0 0-3.7-2.8zm0 5.7a1.793 1.793 0 1 1 1.275-.525A1.8 1.8 0 0 1 24 16.3zM9.3 21.3a3.869 3.869 0 0 0-3.7 2.8H0v2h5.6a3.78 3.78 0 0 0 3.7 2.8 3.869 3.869 0 0 0 3.7-2.8h19v-2H13a3.963 3.963 0 0 0-3.7-2.8zm0 5.6a1.793 1.793 0 1 1 1.275-.525A1.8 1.8 0 0 1 9.3 26.9z"/></svg>