<svg id="EstrelaBloqueada" xmlns="http://www.w3.org/2000/svg" width="30.203" height="32.089" viewBox="0 0 30.203 32.089">
  <path id="Path_1111" data-name="Path 1111" d="M31.062,19.429l-6.691-.98L21.364,12.4,18.39,18.449l-6.691.98,4.832,4.731-1.149,6.657,5.981-3.143,1.487.777a8.329,8.329,0,0,1,3.55-3.109l-.2-1.183Z" transform="translate(-7.746 -8.21)" fill="none"/>
  <path id="Path_1112" data-name="Path 1112" d="M63.51,60.6l-4.731,5.474h0L55.4,69.994a6.033,6.033,0,0,0,3.886.946,6.268,6.268,0,0,0,5.744-6.792A6.726,6.726,0,0,0,63.51,60.6Z" transform="translate(-36.68 -40.741)" fill="none"/>
  <path id="Path_1113" data-name="Path 1113" d="M65.3,76.8Z" transform="translate(-43.234 -51.339)"/>
  <path id="Path_1114" data-name="Path 1114" d="M13.652,19.43,7.671,22.572,8.82,15.915l-4.833-4.73,6.691-.98,2.974-6.049L16.659,10.2l6.657,1.014-4.832,4.731.2,1.183a8.2,8.2,0,0,1,1.825-.574L27.3,9.935,17.875,8.549,13.652,0,9.428,8.549,0,9.9l6.826,6.657L5.2,25.952l8.448-4.427.676.338a7.527,7.527,0,0,1,.811-1.656Z"/>
  <path id="Path_1115" data-name="Path 1115" d="M57.288,56.013a8.176,8.176,0,0,0-8.819-7.468c-.3.034-.574.068-.879.1a8.087,8.087,0,0,0-5.373,3.683,7.526,7.526,0,0,0-.811,1.656,8.457,8.457,0,0,0-.439,3.345,8.17,8.17,0,0,0,8.144,7.5,4.527,4.527,0,0,0,.676-.034,8.129,8.129,0,0,0,7.5-8.782ZM42.893,57.2a6.375,6.375,0,0,1,1.014-3.987,6.527,6.527,0,0,1,2.23-2.061,6.448,6.448,0,0,1,1.757-.642,4.935,4.935,0,0,1,.743-.1c.169,0,.338-.034.507-.034a6.341,6.341,0,0,1,3.379.98l-3.717,4.291-1.318,1.487-3.143,3.649A6.351,6.351,0,0,1,42.893,57.2Zm6.758,5.744A6.535,6.535,0,0,1,45.765,62l3.379-3.92h0L53.875,52.6a6.3,6.3,0,0,1,1.487,3.582,6.185,6.185,0,0,1-5.711,6.758Z" transform="translate(-27.113 -32.741)"/>
</svg>
