<svg xmlns="http://www.w3.org/2000/svg" viewBox="0 0 32 32"><g transform="translate(-125 -557)"><circle cx="16" cy="16" r="16" transform="translate(125 557)" fill="#fff"/><path d="M141 557a15.76 15.76 0 0 1 4.25.57 15.843 15.843 0 0 1 3.82 1.617 16.3 16.3 0 0 1 5.743 5.743A15.843 15.843 0 0 1 157 573a15.843 15.843 0 0 1-2.187 8.07 16.3 16.3 0 0 1-5.742 5.742 15.843 15.843 0 0 1-3.82 1.617 16.121 16.121 0 0 1-8.5 0 15.843 15.843 0 0 1-3.82-1.617 16.3 16.3 0 0 1-5.743-5.742A15.843 15.843 0 0 1 125 573a15.843 15.843 0 0 1 2.188-8.07 16.3 16.3 0 0 1 5.742-5.742 15.843 15.843 0 0 1 3.82-1.617A15.761 15.761 0 0 1 141 557zm9.422 10.7l-2.122-2.122-10.3 10.297-4.3-4.3-2.122 2.125 6.422 6.425z"/></g></svg>