<svg xmlns="http://www.w3.org/2000/svg" viewBox="0 0 32 26"><path d="M26 4.8a9.632 9.632 0 0 1 2.5 1.6 9.516 9.516 0 0 1 1.9 2.1 12.272 12.272 0 0 1 1.2 2.6A9.246 9.246 0 0 1 32 14a10.065 10.065 0 0 1-.8 3.9 9.417 9.417 0 0 1-5.3 5.3 10.065 10.065 0 0 1-3.9.8 11.851 11.851 0 0 1-3.2-.5A7.607 7.607 0 0 1 16 22l-4 4L0 14 14 0h12zM12 23.2l12-12V6.3c-.2 0-.4-.1-.7-.1h-.9a2.769 2.769 0 0 1-.9-.1c-.2-.1-.5-.1-.7-.2l-.6-.3A1.421 1.421 0 0 1 20 5a1.025 1.025 0 0 1 1-1h1.5a7.719 7.719 0 0 1 1.5.2V2h-9.2l-12 12zM22 22a8.149 8.149 0 0 0 3.1-.6 7.386 7.386 0 0 0 2.5-1.7 8.518 8.518 0 0 0 1.7-2.5 7.79 7.79 0 0 0 .6-3.1 7.613 7.613 0 0 0-.3-2.1 10.837 10.837 0 0 0-.8-1.9 6.529 6.529 0 0 0-1.3-1.6 7.627 7.627 0 0 0-1.7-1.3V12l-8.6 8.6a9.061 9.061 0 0 0 2.2 1.1 12.972 12.972 0 0 0 2.6.3z"/></svg>