<svg xmlns="http://www.w3.org/2000/svg" viewBox="0 0 32 32"><path d="M16 8v8.578L10.3 22.3l1.4 1.4 6.3-6.278V8zM1.25 9.766A16.055 16.055 0 0 0 0 16a16.055 16.055 0 0 0 1.25 6.234 15.985 15.985 0 0 0 3.438 5.079 15.985 15.985 0 0 0 5.078 3.437A16.055 16.055 0 0 0 16 32a15.7 15.7 0 0 0 5.25-.891 15.912 15.912 0 0 0 4.516-2.437 16.2 16.2 0 0 0 3.484-3.719 15.488 15.488 0 0 0 1.273-2.253 15.616 15.616 0 0 0 .883-2.437l-1.922-.531a13.654 13.654 0 0 1-1.93 4.156 14.205 14.205 0 0 1-3.086 3.25 14 14 0 0 1-3.953 2.109A13.737 13.737 0 0 1 16 30a13.722 13.722 0 0 1-3.711-.5 14 14 0 0 1-3.344-1.414 14.107 14.107 0 0 1-2.836-2.2 14.107 14.107 0 0 1-2.2-2.836A14.035 14.035 0 0 1 2.5 19.719 13.7 13.7 0 0 1 2 16a13.722 13.722 0 0 1 .5-3.711 14 14 0 0 1 1.414-3.344 14.107 14.107 0 0 1 2.2-2.836 14.107 14.107 0 0 1 2.836-2.2A14 14 0 0 1 12.289 2.5 13.722 13.722 0 0 1 16 2a13.664 13.664 0 0 1 3.938.57 14.175 14.175 0 0 1 3.555 1.617 14.127 14.127 0 0 1 2.969 2.523A13.733 13.733 0 0 1 28.641 10H24v2h8V4h-2v4.281q-.266-.5-.578-.977t-.656-.93A16 16 0 0 0 25.328 3 16.213 16.213 0 0 0 20.906.766 15.8 15.8 0 0 0 16 0a16.055 16.055 0 0 0-6.234 1.25 15.985 15.985 0 0 0-5.078 3.438A15.985 15.985 0 0 0 1.25 9.766z"/></svg>