<svg xmlns="http://www.w3.org/2000/svg" viewBox="0 0 32 32"><path d="M11.517 4.812v9.979h7.736v-2h-5.736V4.812zM24.996 14.465a6.932 6.932 0 0 0-5.56 11.089L14.7 30.29a1.001 1.001 0 1 0 1.416 1.416l4.735-4.735a6.941 6.941 0 1 0 4.144-12.506zm0 11.888a4.943 4.943 0 1 1 4.942-4.943 4.948 4.948 0 0 1-4.942 4.943z"/><path d="M16.361 22.3a10.51 10.51 0 1 1 6.673-9.778c0 .152-.016.3-.023.45A8.649 8.649 0 0 1 25 12.731h.03c0-.072.011-.141.011-.213a12.558 12.558 0 1 0-8.228 11.748 8.549 8.549 0 0 1-.452-1.966z"/></svg>